<svg version="1.1" xmlns="http://www.w3.org/2000/svg" style="" width="auto" height="100%" viewBox="0 0 500 400" >
<g style="mix-blend-mode: source-over;" transform="matrix(2.893765027990483,0,0,2.893765027990483,-59.10971312978586,-58.088832960547094)">
	<path id="logo-eagle" d="M103.02 154.2c-.329-.532-1.93-.7-3.559-.375-1.878.376-2.961.18-2.961-.533 0-.619-1.117-1.125-2.481-1.125-1.807 0-2.65-.673-3.104-2.48-.51-2.033-.95-2.304-2.446-1.503-2.81 1.504-4.97.139-4.97-3.143 0-2.58-.275-2.843-2.417-2.305-2.781.698-4.905-2.133-4.388-5.847.168-1.21-.144-2.21-.694-2.22-2.17-.057-3.5-1.746-3.5-4.444 0-2.081-.462-2.793-1.75-2.69-1.177.093-1.846-.694-2.046-2.407-.245-2.1 1.108-3.744 7.73-9.397 4.414-3.77 8.292-7.694 8.618-8.721.326-1.028.05-3.514-.614-5.525l-1.207-3.658-2.722 3.335c-3.354 4.11-5.905 3.67-5.234-.905.536-3.651-1.371-6.423-3.955-5.747-2.09.547-2.363-.393-.62-2.137.934-.933.804-1.2-.583-1.2-.98 0-1.601-.546-1.378-1.214.443-1.33-.491-1.893-16.971-10.225-6.179-3.124-11.578-6.226-12-6.894-.422-.668-2.088-2.057-3.703-3.086-7.189-4.589-13.565-12.6-13.565-17.05 0-2.317 1.538-1.85 2.762.837 1.944 4.266 7.65 9.918 11.918 11.806 2.3 1.017 8.824 2.539 14.5 3.382 12.024 1.785 20.404 3.817 24.447 5.925 5.135 2.678 7.821 1.578 8.526-3.49.254-1.828-.257-2.765-1.903-3.487-1.237-.542-2.25-1.309-2.25-1.703 0-.778 6.57-2.809 9-2.782 2.243.025 5.574 3.054 7.44 6.766 3.454 6.868 7.447 6.285 29.06-4.245 19.9-9.695 48.183-29.294 55.608-38.533 2.929-3.644 6.237-6.438 5.064-3.38-.276.717-.168 3.393.898 3.672 1.1.288 2.731-1.431 2.731-.286 0 1.106-.238 5.008.45 5.249.89.311.674 1.086-.75 2.69-1.1 1.24.137 2.282.304 3.293.2 1.211-2.74 3.178-4.75 4.218-1.738.899-3.054 2.378-3.054 3.431 0 1.019-.675 2.413-1.5 3.097-.825.685-.166 1.608-.166 2.377 0 .77-2.552 2.219-4.041 2.895-1.49.676-4.527 3.182-6.75 5.569-8.262 8.87-14.747 15.159-15.632 15.159-.502 0 .022.717.022 1.267s-1.834.733-2.934.733-2 .403-2 .895-1.117 1.955-2.482 3.25-2.49 2.966-2.5 3.712c-.01.757-.644 1.117-1.435.813-.78-.299-1.683.15-2.008.997-.325.847-1.24 1.292-2.032.988-.824-.316-1.682.174-2.006 1.146-.517 1.556-8.374 7.812-9.537 7.594-.275-.051-.993.582-1.597 1.407-.855 1.17-1.269 1.223-1.875.243-.616-.998-.95-.98-1.61.089-.685 1.108-1.337 1.05-3.67-.329l-2.838-1.676-3.474 4.686c-1.91 2.577-3.325 5.443-3.144 6.37.495 2.529 8.451 7.202 20.208 11.869 5.775 2.292 11.124 4.758 11.887 5.48 2.167 2.048.593 4.466-2.906 4.466h-3.082l2.57 3.37c3.083 4.042 2.51 6.63-1.469 6.63-1.554 0-3.04.663-3.361 1.5-.317.825-1.49 1.5-2.607 1.5-1.158 0-2.032.659-2.032 1.531 0 2.107-2.42 2.85-4.922 1.51-1.853-.991-2.078-.834-2.078 1.455 0 3.165-2.595 4.337-4.775 2.158-1.493-1.494-1.721-1.378-2.923 1.48-1.061 2.524-1.758 3.012-3.752 2.63-1.496-.285-2.651.059-2.968.884-.6 1.562-3.183 1.807-4.061.385z" style=""/>
</g>
</svg>