
<svg version="1.1" xmlns="http://www.w3.org/2000/svg"  style=""  width="auto" height="100%" viewBox="0 0 1200 1200" >
<path class="logo-outer" style="stroke: #000000; mix-blend-mode: source-over; paint-order: stroke fill markers; fill-opacity: 1; fill-rule: nonzero; stroke-alignment: center; stroke-dasharray: none; stroke-dashoffset: 0; stroke-linecap: round; stroke-linejoin: miter; stroke-miterlimit: 4; stroke-opacity: 1; stroke-width: 2; vector-effect: non-scaling-stroke;" d="M538.81 0 L1005.43 269.4 1005.43 808.21 538.81 1077.61 72.19 808.21 72.19 269.4 zM538.81 528.03 L548.14 533.42 548.14 544.2 538.81 549.58 529.47 544.2 529.47 533.42 z" transform="matrix(1.0980690958099688,0,0,1.0980690958099688,11,8)"/>
<path style="fill: #ffffff; stroke: #000000; mix-blend-mode: destination-out; paint-order: stroke fill markers; fill-opacity: 1; fill-rule: nonzero; stroke-alignment: center; stroke-dasharray: none; stroke-dashoffset: 0; stroke-linecap: round; stroke-linejoin: miter; stroke-miterlimit: 4; stroke-opacity: 1; stroke-width: 2; vector-effect: non-scaling-stroke;" d="M538.81 0 L1005.43 269.4 1005.43 808.21 538.81 1077.61 72.19 808.21 72.19 269.4 zM538.81 528.03 L548.14 533.42 548.14 544.2 538.81 549.58 529.47 544.2 529.47 533.42 z" transform="matrix(0.9547490577627622,0,0,0.9547490577627622,87.97235364833298,84.86556891786358)"/>
<path class="logo-inner" style=" stroke: #000000; mix-blend-mode: source-over; paint-order: stroke fill markers; fill-opacity: 1; fill-rule: nonzero; stroke-alignment: center; stroke-dasharray: none; stroke-dashoffset: 0; stroke-linecap: round; stroke-linejoin: miter; stroke-miterlimit: 4; stroke-opacity: 1; stroke-width: 2; vector-effect: non-scaling-stroke;" d="M538.81 0 L1005.43 269.4 1005.43 808.21 538.81 1077.61 72.19 808.21 72.19 269.4 zM538.81 528.03 L548.14 533.42 548.14 544.2 538.81 549.58 529.47 544.2 529.47 533.42 z" transform="matrix(0.8529471882205828,0,0,0.8529471882205828,143.0455104877931,139.93872575732357)"/>
<path style="fill: #ffffff; stroke: #000000; mix-blend-mode: destination-out; paint-order: stroke fill markers; fill-opacity: 1; fill-rule: nonzero; stroke-alignment: center; stroke-dasharray: none; stroke-dashoffset: 0; stroke-linecap: round; stroke-linejoin: miter; stroke-miterlimit: 4; stroke-opacity: 1; stroke-width: 2; vector-effect: non-scaling-stroke;" d="M538.81 0 L1005.43 269.4 1005.43 808.21 538.81 1077.61 72.19 808.21 72.19 269.4 zM538.81 528.03 L548.14 533.42 548.14 544.2 538.81 549.58 529.47 544.2 529.47 533.42 z" transform="matrix(0.8375622721860702,0,0,0.8375622721860702,151.35843982205105,148.25165509158177)"/>
</svg>