<svg version="1.1" xmlns="http://www.w3.org/2000/svg"  style="" width="100%" height="auto" viewBox="0 0 900 330" >
<g style="mix-blend-mode: source-over;" transform="matrix(1,0,0,1,28,13)">
	<g  style="">
		<g  style="">
			<path d="M 128.8671875 61.56935691833496L 128.8671875 61.56935691833496L 128.8671875 61.56935691833496Q 120.6695556640625 53.37172508239746 107.3760986328125 53.37172508239746L 107.3760986328125 53.37172508239746L 107.3760986328125 53.37172508239746Q 88.543701171875 53.37172508239746 74.1424560546875 63.89571189880371L 74.1424560546875 63.89571189880371L 74.1424560546875 63.89571189880371Q 58.85498046875 74.86281394958496 58.85498046875 90.48262596130371L 58.85498046875 90.48262596130371L 58.85498046875 90.48262596130371Q 58.85498046875 102.66829490661621 70.26519775390625 113.52461814880371L 70.26519775390625 113.52461814880371L 70.26519775390625 113.52461814880371Q 66.05560302734375 119.28511619567871 57.08251953125 123.27315330505371L 57.08251953125 123.27315330505371L 57.08251953125 123.27315330505371Q 54.6453857421875 124.38094139099121 52.09747314453125 124.38094139099121L 52.09747314453125 124.38094139099121L 52.09747314453125 124.38094139099121Q 49.549560546875 124.38094139099121 46.281585693359375 122.83003807067871L 46.281585693359375 122.83003807067871L 46.281585693359375 122.83003807067871Q 43.01361083984375 121.27913475036621 40.4656982421875 118.39888572692871L 40.4656982421875 118.39888572692871L 40.4656982421875 118.39888572692871Q 34.7052001953125 111.86293601989746 34.7052001953125 102.77907371520996L 34.7052001953125 102.77907371520996L 34.7052001953125 102.77907371520996Q 34.7052001953125 93.69521141052246 37.91778564453125 85.94069480895996L 37.91778564453125 85.94069480895996L 37.91778564453125 85.94069480895996Q 41.13037109375 78.18617820739746 46.6693115234375 71.48406028747559L 46.6693115234375 71.48406028747559L 46.6693115234375 71.48406028747559Q 52.208251953125 64.78194236755371 59.575042724609375 59.35378074645996L 59.575042724609375 59.35378074645996L 59.575042724609375 59.35378074645996Q 66.94183349609375 53.92561912536621 75.250244140625 49.93758201599121L 75.250244140625 49.93758201599121L 75.250244140625 49.93758201599121Q 92.64251708984375 41.85072898864746 109.20394897460938 41.85072898864746L 109.20394897460938 41.85072898864746L 109.20394897460938 41.85072898864746Q 125.765380859375 41.85072898864746 136.84326171875 47.83278465270996L 136.84326171875 47.83278465270996L 136.84326171875 47.83278465270996Q 162.5439453125 61.68013572692871 162.5439453125 110.31203269958496L 162.5439453125 110.31203269958496L 162.5439453125 110.31203269958496Q 162.5439453125 125.04561424255371 160.21759033203125 143.10256004333496L 160.21759033203125 143.10256004333496L 160.21759033203125 143.10256004333496Q 179.04998779296875 121.72224998474121 233.2208251953125 77.18916893005371L 233.2208251953125 77.18916893005371L 233.2208251953125 77.18916893005371Q 240.64300537109375 71.20711326599121 247.06817626953125 65.66817283630371L 247.06817626953125 65.66817283630371L 247.06817626953125 65.66817283630371Q 253.05023193359375 50.49147605895996 256.927490234375 45.72798728942871L 256.927490234375 45.72798728942871L 256.927490234375 45.72798728942871Q 263.24188232421875 37.86269187927246 267.7838134765625 37.86269187927246L 267.7838134765625 37.86269187927246L 267.7838134765625 37.86269187927246Q 272.32574462890625 37.86269187927246 273.9874267578125 40.133657455444336L 273.9874267578125 40.133657455444336L 273.9874267578125 40.133657455444336Q 275.64910888671875 42.40462303161621 275.64910888671875 44.454030990600586L 275.64910888671875 44.454030990600586L 275.64910888671875 44.454030990600586Q 275.64910888671875 46.50343894958496 274.4859313964844 48.71901512145996L 274.4859313964844 48.71901512145996L 274.4859313964844 48.71901512145996Q 273.32275390625 50.93459129333496 271.55029296875 53.48250389099121L 271.55029296875 53.48250389099121L 271.55029296875 53.48250389099121Q 267.89459228515625 58.57832908630371 263.57421875 63.34181785583496L 263.57421875 63.34181785583496L 263.57421875 63.34181785583496Q 252.60711669921875 122.83003807067871 252.60711669921875 183.3152675628662L 252.60711669921875 183.3152675628662L 252.60711669921875 183.3152675628662Q 252.60711669921875 204.91713523864746 234.771728515625 212.7824306488037L 234.771728515625 212.7824306488037L 234.771728515625 212.7824306488037Q 226.68487548828125 216.3273525238037 217.2686767578125 216.3273525238037L 217.2686767578125 216.3273525238037L 217.2686767578125 216.3273525238037Q 203.0889892578125 216.3273525238037 192.8973388671875 209.56984519958496L 192.8973388671875 209.56984519958496L 192.8973388671875 209.56984519958496Q 188.9093017578125 206.91115379333496 186.6937255859375 203.4770107269287L 186.6937255859375 203.4770107269287L 186.6937255859375 203.4770107269287Q 198.76861572265625 193.39613914489746 222.03216552734375 135.4588222503662L 222.03216552734375 135.4588222503662L 222.03216552734375 135.4588222503662Q 231.33758544921875 112.19527244567871 239.202880859375 88.04549217224121L 239.202880859375 88.04549217224121L 217.37945556640625 109.86891746520996L 217.37945556640625 109.86891746520996Q 175.83740234375 151.4109706878662 157.2265625 176.77931785583496L 157.2265625 176.77931785583496L 157.2265625 176.77931785583496Q 155.56488037109375 189.85121726989746 147.921142578125 204.3632411956787L 147.921142578125 204.3632411956787L 147.921142578125 204.3632411956787Q 143.15765380859375 213.11476707458496 140.11123657226562 215.99501609802246L 140.11123657226562 215.99501609802246L 140.11123657226562 215.99501609802246Q 137.0648193359375 218.87526512145996 135.513916015625 218.87526512145996L 135.513916015625 218.87526512145996L 135.513916015625 218.87526512145996Q 125.1007080078125 218.87526512145996 113.46893310546875 212.67165184020996L 113.46893310546875 212.67165184020996L 113.46893310546875 212.67165184020996Q 101.837158203125 206.46803855895996 101.837158203125 201.0398769378662L 101.837158203125 201.0398769378662L 101.837158203125 201.0398769378662Q 101.837158203125 193.7284755706787 115.57373046875 177.88710594177246L 115.57373046875 177.88710594177246L 115.57373046875 177.88710594177246Q 119.3402099609375 173.45595359802246 123.21746826171875 169.5786952972412L 123.21746826171875 169.5786952972412L 123.21746826171875 169.5786952972412Q 140.27740478515625 132.24623680114746 140.27740478515625 98.68025779724121L 140.27740478515625 98.68025779724121L 140.27740478515625 98.68025779724121Q 140.27740478515625 94.69222068786621 139.66812133789062 86.82692527770996L 139.66812133789062 86.82692527770996L 139.66812133789062 86.82692527770996Q 139.058837890625 78.96162986755371 134.96002197265625 70.32088279724121L 134.96002197265625 70.32088279724121L 134.96002197265625 70.32088279724121Q 119.45098876953125 121.27913475036621 90.5377197265625 164.7044277191162L 90.5377197265625 164.7044277191162L 90.5377197265625 164.7044277191162Q 70.1544189453125 195.16860008239746 48.77410888671875 207.79738426208496L 48.77410888671875 207.79738426208496L 48.77410888671875 207.79738426208496Q 37.69622802734375 214.3333339691162 26.61834716796875 214.3333339691162L 26.61834716796875 214.3333339691162L 26.61834716796875 214.3333339691162Q 15.54046630859375 214.3333339691162 8.5614013671875 210.89919090270996L 8.5614013671875 210.89919090270996L 8.5614013671875 210.89919090270996Q -5.95062255859375 203.6985683441162 -5.95062255859375 186.6386318206787L -5.95062255859375 186.6386318206787L -5.95062255859375 186.6386318206787Q -5.95062255859375 175.5607509613037 -0.3009033203125 166.36610984802246L -0.3009033203125 166.36610984802246L -0.3009033203125 166.36610984802246Q 2.8009033203125 161.3810634613037 6.67816162109375 159.05470848083496L 6.67816162109375 159.05470848083496L 6.67816162109375 159.05470848083496Q 21.63330078125 169.68947410583496 36.80999755859375 169.68947410583496L 36.80999755859375 169.68947410583496L 36.80999755859375 169.68947410583496Q 59.18731689453125 169.68947410583496 81.2322998046875 145.2073574066162L 81.2322998046875 145.2073574066162L 81.2322998046875 145.2073574066162Q 100.61859130859375 123.60548973083496 119.561767578125 82.39577293395996L 119.561767578125 82.39577293395996L 119.561767578125 82.39577293395996Q 124.6575927734375 71.31789207458496 128.8671875 61.56935691833496ZZM 294.4261169433594 221.2570095062256L 294.4261169433594 221.2570095062256L 294.4261169433594 221.2570095062256Q 290.71502685546875 218.5429286956787 289.27490234375 215.9396266937256L 289.27490234375 215.9396266937256L 289.27490234375 215.9396266937256Q 287.83477783203125 213.33632469177246 287.83477783203125 209.4590663909912L 287.83477783203125 209.4590663909912L 287.83477783203125 209.4590663909912Q 287.83477783203125 205.58180809020996 290.49346923828125 201.2614345550537L 290.49346923828125 201.2614345550537L 290.49346923828125 201.2614345550537Q 293.15216064453125 196.94106101989746 297.58331298828125 193.5069179534912L 297.58331298828125 193.5069179534912L 297.58331298828125 193.5069179534912Q 307.6641845703125 185.86318016052246 318.63128662109375 185.86318016052246L 318.63128662109375 185.86318016052246L 318.63128662109375 185.86318016052246Q 329.598388671875 185.86318016052246 334.6388244628906 190.4051113128662L 334.6388244628906 190.4051113128662L 334.6388244628906 190.4051113128662Q 339.67926025390625 194.94704246520996 339.67926025390625 202.25844383239746L 339.67926025390625 202.25844383239746L 339.67926025390625 202.25844383239746Q 339.67926025390625 210.5668544769287 327.05047607421875 217.54591941833496L 327.05047607421875 217.54591941833496L 327.05047607421875 217.54591941833496Q 315.418701171875 223.97109031677246 305.11627197265625 223.97109031677246L 305.11627197265625 223.97109031677246L 305.11627197265625 223.97109031677246Q 298.13720703125 223.97109031677246 294.4261169433594 221.2570095062256ZZM 513.3804321289062 129.9198818206787L 513.3804321289062 129.9198818206787L 513.3804321289062 129.9198818206787Q 496.8743896484375 121.94380760192871 483.802490234375 117.84499168395996L 483.802490234375 117.84499168395996L 483.802490234375 117.84499168395996Q 455.55389404296875 151.96486473083496 450.45806884765625 183.9799404144287L 450.45806884765625 183.9799404144287L 450.45806884765625 183.9799404144287Q 449.6826171875 189.18654441833496 449.6826171875 194.4485378265381L 449.6826171875 194.4485378265381L 449.6826171875 194.4485378265381Q 449.6826171875 199.7105312347412 450.67962646484375 205.0279140472412L 450.67962646484375 205.0279140472412L 450.67962646484375 205.0279140472412Q 439.60174560546875 213.2255458831787 427.85919189453125 217.2135829925537L 427.85919189453125 217.2135829925537L 427.85919189453125 217.2135829925537Q 423.7603759765625 218.65370750427246 421.21246337890625 218.65370750427246L 421.21246337890625 218.65370750427246L 421.21246337890625 218.65370750427246Q 418.66455078125 218.65370750427246 415.9504699707031 217.32436180114746L 415.9504699707031 217.32436180114746L 415.9504699707031 217.32436180114746Q 413.23638916015625 215.99501609802246 411.02081298828125 213.2255458831787L 411.02081298828125 213.2255458831787L 411.02081298828125 213.2255458831787Q 405.70343017578125 207.0219326019287 405.70343017578125 196.71950340270996L 405.70343017578125 196.71950340270996L 405.70343017578125 196.71950340270996Q 405.70343017578125 186.4170742034912 409.4145202636719 175.89308738708496L 409.4145202636719 175.89308738708496L 409.4145202636719 175.89308738708496Q 413.1256103515625 165.3691005706787 419.66156005859375 154.62355613708496L 419.66156005859375 154.62355613708496L 419.66156005859375 154.62355613708496Q 431.9580078125 134.3510341644287 455.11077880859375 112.41683006286621L 455.11077880859375 112.41683006286621L 455.11077880859375 112.41683006286621Q 446.02691650390625 111.86293601989746 437.0538330078125 111.86293601989746L 437.0538330078125 111.86293601989746L 437.0538330078125 111.86293601989746Q 428.08074951171875 111.86293601989746 418.33221435546875 114.18929100036621L 418.33221435546875 114.18929100036621L 418.33221435546875 114.18929100036621Q 397.72735595703125 119.06355857849121 393.73931884765625 132.8001308441162L 393.73931884765625 132.8001308441162L 393.73931884765625 132.8001308441162Q 392.9638671875 135.2372646331787 392.9638671875 139.16991233825684L 392.9638671875 139.16991233825684L 392.9638671875 139.16991233825684Q 392.9638671875 143.10256004333496 395.62255859375 149.30617332458496L 395.62255859375 149.30617332458496L 395.62255859375 149.30617332458496Q 393.406982421875 153.4049892425537 385.32012939453125 152.62953758239746L 385.32012939453125 152.62953758239746L 385.32012939453125 152.62953758239746Q 376.90093994140625 151.8540859222412 372.137451171875 148.0876064300537L 372.137451171875 148.0876064300537L 372.137451171875 148.0876064300537Q 363.16436767578125 140.9977626800537 363.16436767578125 132.46779441833496L 363.16436767578125 132.46779441833496L 363.16436767578125 132.46779441833496Q 363.16436767578125 115.85097312927246 386.42791748046875 105.77010154724121L 386.42791748046875 105.77010154724121L 386.42791748046875 105.77010154724121Q 408.02978515625 96.35390281677246 439.0478515625 96.35390281677246L 439.0478515625 96.35390281677246L 439.0478515625 96.35390281677246Q 452.89520263671875 96.35390281677246 469.4012451171875 99.89882469177246L 469.4012451171875 99.89882469177246L 469.4012451171875 99.89882469177246Q 510.94329833984375 65.33583641052246 554.5901489257812 49.27290916442871L 554.5901489257812 49.27290916442871L 554.5901489257812 49.27290916442871Q 575.6381225585938 41.51839256286621 591.8118286132812 41.51839256286621L 591.8118286132812 41.51839256286621L 591.8118286132812 41.51839256286621Q 599.3447875976562 41.51839256286621 603.0558776855469 44.897146224975586L 603.0558776855469 44.897146224975586L 603.0558776855469 44.897146224975586Q 606.7669677734375 48.27589988708496 606.7669677734375 53.427114486694336L 606.7669677734375 53.427114486694336L 606.7669677734375 53.427114486694336Q 606.7669677734375 58.57832908630371 604.0528869628906 66.22206687927246L 604.0528869628906 66.22206687927246L 604.0528869628906 66.22206687927246Q 601.3388061523438 73.86580467224121 597.239990234375 83.22661399841309L 597.239990234375 83.22661399841309L 597.239990234375 83.22661399841309Q 593.1411743164062 92.58742332458496 588.4330749511719 103.33296775817871L 588.4330749511719 103.33296775817871L 588.4330749511719 103.33296775817871Q 583.7249755859375 114.07851219177246 579.6261596679688 125.26717185974121L 579.6261596679688 125.26717185974121L 579.6261596679688 125.26717185974121Q 570.0991821289062 151.30019187927246 570.0991821289062 169.3571376800537L 570.0991821289062 169.3571376800537L 570.0991821289062 169.3571376800537Q 570.0991821289062 182.53981590270996 581.73095703125 182.53981590270996L 581.73095703125 182.53981590270996L 581.73095703125 182.53981590270996Q 585.0543212890625 182.53981590270996 589.0423583984375 180.8781337738037L 589.0423583984375 180.8781337738037L 589.0423583984375 180.8781337738037Q 591.1471557617188 182.31825828552246 592.4765014648438 184.7000026702881L 592.4765014648438 184.7000026702881L 592.4765014648438 184.7000026702881Q 593.8058471679688 187.0817470550537 593.8058471679688 188.8542079925537L 593.8058471679688 188.8542079925537L 593.8058471679688 188.8542079925537Q 593.8058471679688 190.6266689300537 592.4211120605469 193.9500331878662L 592.4211120605469 193.9500331878662L 592.4211120605469 193.9500331878662Q 591.036376953125 197.2733974456787 588.4884643554688 200.6521511077881L 588.4884643554688 200.6521511077881L 588.4884643554688 200.6521511077881Q 585.9405517578125 204.03090476989746 582.3402404785156 207.13271141052246L 582.3402404785156 207.13271141052246L 582.3402404785156 207.13271141052246Q 578.7399291992188 210.23451805114746 574.4195556640625 212.67165184020996L 574.4195556640625 212.67165184020996L 574.4195556640625 212.67165184020996Q 558.245849609375 221.8662929534912 539.4134521484375 215.4411220550537L 539.4134521484375 215.4411220550537L 539.4134521484375 215.4411220550537Q 523.7936401367188 210.23451805114746 517.1469116210938 193.9500331878662L 517.1469116210938 193.9500331878662L 517.1469116210938 193.9500331878662Q 513.8235473632812 185.5308437347412 513.8235473632812 174.78529930114746L 513.8235473632812 174.78529930114746L 513.8235473632812 174.78529930114746Q 513.8235473632812 164.0397548675537 517.1469116210938 154.5681667327881L 517.1469116210938 154.5681667327881L 517.1469116210938 154.5681667327881Q 520.4702758789062 145.09657859802246 525.8430480957031 135.9573268890381L 525.8430480957031 135.9573268890381L 525.8430480957031 135.9573268890381Q 531.2158203125 126.81807518005371 538.1394958496094 118.28810691833496L 538.1394958496094 118.28810691833496L 538.1394958496094 118.28810691833496Q 545.0631713867188 109.75813865661621 552.3191833496094 101.94823265075684L 552.3191833496094 101.94823265075684L 552.3191833496094 101.94823265075684Q 559.5751953125 94.13832664489746 566.4988708496094 87.27004051208496L 566.4988708496094 87.27004051208496L 566.4988708496094 87.27004051208496Q 573.4225463867188 80.40175437927246 578.7399291992188 74.53047752380371L 578.7399291992188 74.53047752380371L 578.7399291992188 74.53047752380371Q 590.8148193359375 61.56935691833496 590.8148193359375 56.69508934020996L 590.8148193359375 56.69508934020996L 590.8148193359375 56.69508934020996Q 590.8148193359375 54.14717674255371 586.162109375 54.14717674255371L 586.162109375 54.14717674255371L 586.162109375 54.14717674255371Q 566.0003662109375 54.14717674255371 540.1889038085938 69.21309471130371L 540.1889038085938 69.21309471130371L 540.1889038085938 69.21309471130371Q 515.263671875 83.83589744567871 493.44024658203125 106.98866844177246L 493.44024658203125 106.98866844177246L 493.44024658203125 106.98866844177246Q 511.0540771484375 113.30306053161621 514.820556640625 118.39888572692871L 514.820556640625 118.39888572692871L 514.820556640625 118.39888572692871Q 519.1409301757812 124.15938377380371 513.3804321289062 129.9198818206787ZZM 623.1068420410156 221.2570095062256L 623.1068420410156 221.2570095062256L 623.1068420410156 221.2570095062256Q 619.395751953125 218.5429286956787 617.9556274414062 215.9396266937256L 617.9556274414062 215.9396266937256L 617.9556274414062 215.9396266937256Q 616.5155029296875 213.33632469177246 616.5155029296875 209.4590663909912L 616.5155029296875 209.4590663909912L 616.5155029296875 209.4590663909912Q 616.5155029296875 205.58180809020996 619.1741943359375 201.2614345550537L 619.1741943359375 201.2614345550537L 619.1741943359375 201.2614345550537Q 621.8328857421875 196.94106101989746 626.2640380859375 193.5069179534912L 626.2640380859375 193.5069179534912L 626.2640380859375 193.5069179534912Q 636.3449096679688 185.86318016052246 647.31201171875 185.86318016052246L 647.31201171875 185.86318016052246L 647.31201171875 185.86318016052246Q 658.2791137695312 185.86318016052246 663.3195495605469 190.4051113128662L 663.3195495605469 190.4051113128662L 663.3195495605469 190.4051113128662Q 668.3599853515625 194.94704246520996 668.3599853515625 202.25844383239746L 668.3599853515625 202.25844383239746L 668.3599853515625 202.25844383239746Q 668.3599853515625 210.5668544769287 655.731201171875 217.54591941833496L 655.731201171875 217.54591941833496L 655.731201171875 217.54591941833496Q 644.0994262695312 223.97109031677246 633.7969970703125 223.97109031677246L 633.7969970703125 223.97109031677246L 633.7969970703125 223.97109031677246Q 626.8179321289062 223.97109031677246 623.1068420410156 221.2570095062256ZZM 830.76171875 74.30891990661621L 830.76171875 74.30891990661621L 830.76171875 74.30891990661621Q 836.7437744140625 67.10829734802246 836.7437744140625 61.01546287536621L 836.7437744140625 61.01546287536621L 836.7437744140625 61.01546287536621Q 836.7437744140625 56.47353172302246 833.5865783691406 54.424123764038086L 833.5865783691406 54.424123764038086L 833.5865783691406 54.424123764038086Q 830.4293823242188 52.37471580505371 823.3395385742188 52.37471580505371L 823.3395385742188 52.37471580505371L 823.3395385742188 52.37471580505371Q 816.2496948242188 52.37471580505371 806.0580444335938 55.975027084350586L 806.0580444335938 55.975027084350586L 806.0580444335938 55.975027084350586Q 795.8663940429688 59.57533836364746 786.5055847167969 65.77895164489746L 786.5055847167969 65.77895164489746L 786.5055847167969 65.77895164489746Q 777.144775390625 71.98256492614746 769.0025329589844 80.34636497497559L 769.0025329589844 80.34636497497559L 769.0025329589844 80.34636497497559Q 760.8602905273438 88.71016502380371 754.8782348632812 98.34792137145996L 754.8782348632812 98.34792137145996L 754.8782348632812 98.34792137145996Q 742.0278930664062 119.06355857849121 742.0278930664062 138.7821865081787L 742.0278930664062 138.7821865081787L 742.0278930664062 138.7821865081787Q 742.0278930664062 158.61159324645996 755.875244140625 171.5727138519287L 755.875244140625 171.5727138519287L 755.875244140625 171.5727138519287Q 771.9381713867188 186.6386318206787 797.8604125976562 186.6386318206787L 797.8604125976562 186.6386318206787L 797.8604125976562 186.6386318206787Q 824.4473266601562 186.6386318206787 844.7198486328125 170.6864833831787L 844.7198486328125 170.6864833831787L 844.7198486328125 170.6864833831787Q 852.91748046875 164.15053367614746 858.8995361328125 154.9558925628662L 858.8995361328125 154.9558925628662L 858.8995361328125 154.9558925628662Q 863.8845825195312 154.62355613708496 863.8845825195312 159.05470848083496L 863.8845825195312 159.05470848083496L 863.8845825195312 159.05470848083496Q 863.8845825195312 160.82716941833496 862.7767944335938 163.3750820159912L 862.7767944335938 163.3750820159912L 862.7767944335938 163.3750820159912Q 853.9144897460938 184.31227684020996 834.306640625 198.8243007659912L 834.306640625 198.8243007659912L 834.306640625 198.8243007659912Q 805.1718139648438 220.3153896331787 769.0579223632812 220.3153896331787L 769.0579223632812 220.3153896331787L 769.0579223632812 220.3153896331787Q 746.6806030273438 220.3153896331787 729.5098876953125 210.67763328552246L 729.5098876953125 210.67763328552246L 729.5098876953125 210.67763328552246Q 711.0098266601562 200.3752040863037 703.6984252929688 179.7703456878662L 703.6984252929688 179.7703456878662L 703.6984252929688 179.7703456878662Q 699.9319458007812 169.1355800628662 699.9319458007812 156.9499111175537L 699.9319458007812 156.9499111175537L 699.9319458007812 156.9499111175537Q 699.9319458007812 144.7642421722412 703.14453125 134.01869773864746L 703.14453125 134.01869773864746L 703.14453125 134.01869773864746Q 706.3571166992188 123.27315330505371 712.1730041503906 113.08150291442871L 712.1730041503906 113.08150291442871L 712.1730041503906 113.08150291442871Q 717.9888916015625 102.88985252380371 725.9649658203125 93.58443260192871L 725.9649658203125 93.58443260192871L 725.9649658203125 93.58443260192871Q 733.9410400390625 84.27901268005371 743.5234069824219 76.13677024841309L 743.5234069824219 76.13677024841309L 743.5234069824219 76.13677024841309Q 753.1057739257812 67.99452781677246 763.7959289550781 61.403188705444336L 763.7959289550781 61.403188705444336L 763.7959289550781 61.403188705444336Q 774.486083984375 54.81184959411621 785.7855224609375 50.15913963317871L 785.7855224609375 50.15913963317871L 785.7855224609375 50.15913963317871Q 809.3814086914062 40.18904685974121 830.6509399414062 40.18904685974121L 830.6509399414062 40.18904685974121L 830.6509399414062 40.18904685974121Q 852.2528076171875 40.18904685974121 860.00732421875 52.37471580505371L 860.00732421875 52.37471580505371L 860.00732421875 52.37471580505371Q 862.7767944335938 56.58431053161621 862.7767944335938 61.90169334411621L 862.7767944335938 61.90169334411621L 862.7767944335938 61.90169334411621Q 862.7767944335938 67.21907615661621 861.1151123046875 71.04094505310059L 861.1151123046875 71.04094505310059L 861.1151123046875 71.04094505310059Q 859.4534301757812 74.86281394958496 856.905517578125 77.63228416442871L 856.905517578125 77.63228416442871L 856.905517578125 77.63228416442871Q 851.588134765625 83.39278221130371 846.8246459960938 83.39278221130371L 846.8246459960938 83.39278221130371L 846.8246459960938 83.39278221130371Q 842.3934936523438 83.39278221130371 833.42041015625 76.63527488708496L 833.42041015625 76.63527488708496L 833.42041015625 76.63527488708496Q 831.4263916015625 75.08437156677246 830.76171875 74.30891990661621Z" id="logo-text" style=" paint-order: stroke fill markers;"/>
		</g>
	</g>
</g>
</svg>